<?xml version="1.0" encoding="UTF-8"?>
<svg width="200" height="50" viewBox="0 0 200 50" fill="none" xmlns="http://www.w3.org/2000/svg">
    <!-- Símbolo da logo -->
    <path d="M20 10C20 4.47715 24.4772 0 30 0H40C45.5228 0 50 4.47715 50 10V40C50 45.5228 45.5228 50 40 50H30C24.4772 50 20 45.5228 20 40V10Z" fill="#059669"/>
    <path d="M35 15C35 12.2386 37.2386 10 40 10C42.7614 10 45 12.2386 45 15V35C45 37.7614 42.7614 40 40 40C37.2386 40 35 37.7614 35 35V15Z" fill="white"/>
    <path d="M25 20C25 17.2386 27.2386 15 30 15C32.7614 15 35 17.2386 35 20V30C35 32.7614 32.7614 35 30 35C27.2386 35 25 32.7614 25 30V20Z" fill="white"/>
    
    <!-- Texto "VidaPlus" -->
    <path d="M65 35H70V15H65V35ZM75 35H80V15H75V35ZM85 35H90V15H85V35ZM95 35H100V15H95V35ZM105 35H110V15H105V35ZM115 35H120V15H115V35ZM125 35H130V15H125V35ZM135 35H140V15H135V35ZM145 35H150V15H145V35ZM155 35H160V15H155V35ZM165 35H170V15H165V35ZM175 35H180V15H175V35ZM185 35H190V15H185V35Z" fill="white"/>
    
    <!-- Slogan "Saúde em suas mãos" -->
    <text x="65" y="45" font-family="Inter, sans-serif" font-size="8" fill="rgba(255,255,255,0.8)">Saúde em suas mãos</text>
</svg> 